<?xml version="1.0" encoding="utf-8"?>
<!-- Generator: Adobe Illustrator 20.0.0, SVG Export Plug-In . SVG Version: 6.00 Build 0)  -->
<svg version="1.1" id="_x2014_ÎÓÈ_x5F_1" xmlns="http://www.w3.org/2000/svg" xmlns:xlink="http://www.w3.org/1999/xlink"
	 x="0px" y="0px" viewBox="0 0 4500 3000" style="enable-background:new 0 0 4500 3000;" xml:space="preserve">
<style type="text/css">
	.st0{fill:#EBF7FF;}
	.st1{fill:#D7E9F4;}
	.st2{fill:#FFFFFF;}
	.st3{fill:#3FA9F5;}
	.st4{clip-path:url(#SVGID_2_);}
	.st5{fill:#7DC7F4;}
</style>
<rect class="st0" width="4500" height="3000"/>
<path class="st1" d="M852.5,393.4H367c-28.7,0-52-23.3-52-52V273c0-28.7,23.3-52,52-52h485.5c28.7,0,52,23.3,52,52v68.4
	C904.5,370.1,881.2,393.4,852.5,393.4z"/>
<path class="st1" d="M1717.6,597h-485.5c-28.7,0-52-23.3-52-52v-68.4c0-28.7,23.3-52,52-52h485.5c28.7,0,52,23.3,52,52V545
	C1769.6,573.8,1746.4,597,1717.6,597z"/>
<path class="st1" d="M4149.6,1361h-485.5c-28.7,0-52-23.3-52-52v-68.4c0-28.7,23.3-52,52-52h485.5c28.7,0,52,23.3,52,52v68.4
	C4201.6,1337.7,4178.4,1361,4149.6,1361z"/>
<path class="st1" d="M679.4,2715.1H193.9c-28.7,0-52-23.3-52-52v-68.4c0-28.7,23.3-52,52-52h485.5c28.7,0,52,23.3,52,52v68.4
	C731.4,2691.8,708.2,2715.1,679.4,2715.1z"/>
<path class="st1" d="M313.7,1940.4H0V1768h313.7c28.7,0,52,23.3,52,52v68.4C365.7,1917.1,342.4,1940.4,313.7,1940.4z"/>
<path class="st1" d="M4186.3,2301.5H4500v-172.4h-313.7c-28.7,0-52,23.3-52,52v68.4C4134.3,2278.2,4157.6,2301.5,4186.3,2301.5z"/>
<path class="st1" d="M2132.2,2846.6h-485.5c-28.7,0-52-23.3-52-52v-68.4c0-28.7,23.3-52,52-52h485.5c28.7,0,52,23.3,52,52v68.4
	C2184.2,2823.3,2161,2846.6,2132.2,2846.6z"/>
<path class="st1" d="M2668.2,2674.3h-190.8c-28.7,0-52-23.3-52-52v-68.4c0-28.7,23.3-52,52-52h190.8c28.7,0,52,23.3,52,52v68.4
	C2720.2,2651,2697,2674.3,2668.2,2674.3z"/>
<path class="st1" d="M242.8,1154.8H139c-28.7,0-52-23.3-52-52v-68.4c0-28.7,23.3-52,52-52h103.8c28.7,0,52,23.3,52,52v68.4
	C294.8,1131.5,271.5,1154.8,242.8,1154.8z"/>
<path class="st1" d="M4232.3,1558.7h-103.8c-28.7,0-52-23.3-52-52v-68.4c0-28.7,23.3-52,52-52h103.8c28.7,0,52,23.3,52,52v68.4
	C4284.3,1535.4,4261,1558.7,4232.3,1558.7z"/>
<path class="st1" d="M557.8,1330.7H367c-28.7,0-52-23.3-52-52v-68.4c0-28.7,23.3-52,52-52h190.8c28.7,0,52,23.3,52,52v68.4
	C609.8,1307.4,586.5,1330.7,557.8,1330.7z"/>
<path class="st1" d="M4171.9,2760.4h-190.8c-28.7,0-52-23.3-52-52v-68.4c0-28.7,23.3-52,52-52h190.8c28.7,0,52,23.3,52,52v68.4
	C4223.9,2737.2,4200.6,2760.4,4171.9,2760.4z"/>
<path class="st1" d="M2175.9,332.4h-190.8c-28.7,0-52-23.3-52-52V212c0-28.7,23.3-52,52-52h190.8c28.7,0,52,23.3,52,52v68.4
	C2227.9,309.1,2204.6,332.4,2175.9,332.4z"/>
<path class="st1" d="M1580.9,1361.3h-436.8c-28.7,0-52-23.3-52-52v-68.4c0-28.7,23.3-52,52-52h436.8c28.7,0,52,23.3,52,52v68.4
	C1632.9,1338,1609.6,1361.3,1580.9,1361.3z"/>
<path class="st1" d="M1950.1,2040.1h-593.7c-28.7,0-52-23.3-52-52v-68.4c0-28.7,23.3-52,52-52h593.7c28.7,0,52,23.3,52,52v68.4
	C2002.1,2016.8,1978.8,2040.1,1950.1,2040.1z"/>
<g>
	<g>
		<line class="st2" x1="408" y1="2258.5" x2="4041.9" y2="2258.5"/>
		<path class="st3" d="M4041.9,2263.6H408c-2.8,0-5.1-2.3-5.1-5.1s2.3-5.1,5.1-5.1h3633.9c2.8,0,5.1,2.3,5.1,5.1
			S4044.7,2263.6,4041.9,2263.6z"/>
	</g>
	<g>
		<line class="st2" x1="408" y1="2434" x2="4041.9" y2="2434"/>
		<path class="st3" d="M4041.9,2439.1H408c-2.8,0-5.1-2.3-5.1-5.1c0-2.8,2.3-5.1,5.1-5.1h3633.9c2.8,0,5.1,2.3,5.1,5.1
			C4047,2436.8,4044.7,2439.1,4041.9,2439.1z"/>
	</g>
	<g>
		<line class="st2" x1="1005.9" y1="2805.1" x2="892.6" y2="2597.4"/>
		<path class="st3" d="M1005.9,2810.2c-1.8,0-3.6-1-4.5-2.7l-113.3-207.7c-1.3-2.5-0.4-5.6,2-6.9c2.5-1.3,5.6-0.4,6.9,2l113.3,207.7
			c1.3,2.5,0.4,5.6-2,6.9C1007.6,2810,1006.8,2810.2,1005.9,2810.2z"/>
	</g>
	<g>
		<line class="st2" x1="1190.1" y1="2805.1" x2="989.7" y2="2437.9"/>
		<path class="st3" d="M1190.1,2810.2c-1.8,0-3.6-1-4.5-2.7l-200.4-367.2c-1.3-2.5-0.4-5.6,2-6.9c2.5-1.3,5.6-0.4,6.9,2l200.4,367.2
			c1.3,2.5,0.4,5.6-2,6.9C1191.8,2810,1191,2810.2,1190.1,2810.2z"/>
	</g>
	<g>
		<g>
			<rect x="1819.1" y="2188.5" class="st2" width="811.7" height="65.5"/>
			<path class="st3" d="M2635.9,2259H1814v-75.7h821.9V2259z M1824.2,2248.8h801.5v-55.3h-801.5V2248.8z"/>
		</g>
		<g>
			<rect x="1961.8" y="2035.6" class="st2" width="526.4" height="152.8"/>
			<path class="st3" d="M2493.3,2193.6h-536.6v-163h536.6V2193.6z M1966.8,2183.4h516.2v-142.6h-516.2V2183.4z"/>
		</g>
		<g>
			<rect x="1419.5" y="1013.3" class="st2" width="1610.9" height="1022.3"/>
			<path class="st3" d="M3035.5,2040.7H1414.4V1008.2h1621.1V2040.7z M1424.6,2030.5h1600.7V1018.4H1424.6V2030.5z"/>
		</g>
		<g>
			<rect x="1477.8" y="1071.7" class="st3" width="1494.3" height="771"/>
			<path class="st3" d="M2977.2,1847.8H1472.7v-781.2h1504.5V1847.8z M1482.9,1837.6H2967v-760.8H1482.9V1837.6z"/>
		</g>
		<g>
			<defs>
				<rect id="SVGID_1_" x="1483.3" y="1079.3" width="1480.5" height="755.6"/>
			</defs>
			<clipPath id="SVGID_2_">
				<use xlink:href="#SVGID_1_"  style="overflow:visible;"/>
			</clipPath>
			<g class="st4">
				<polygon class="st5" points="1638.8,962.9 2605,1918.2 2852.7,1918.2 1861.6,937.9 				"/>
				<polygon class="st5" points="1941.8,962.9 2907.9,1918.2 3155.7,1918.2 3004.4,937.9 				"/>
			</g>
		</g>
		<g>
			<circle class="st2" cx="2225" cy="1943.7" r="31.5"/>
			<path class="st3" d="M2225,1980.3c-20.2,0-36.6-16.4-36.6-36.6s16.4-36.6,36.6-36.6c20.2,0,36.6,16.4,36.6,36.6
				S2245.2,1980.3,2225,1980.3z M2225,1917.2c-14.6,0-26.4,11.9-26.4,26.4s11.9,26.4,26.4,26.4c14.6,0,26.4-11.9,26.4-26.4
				S2239.6,1917.2,2225,1917.2z"/>
		</g>
	</g>
	<g>
		<g>
			
				<rect x="1020.7" y="1927.7" transform="matrix(-1 -1.224647e-16 1.224647e-16 -1 2314.5144 4185.915)" class="st2" width="273.2" height="330.6"/>
			<path class="st3" d="M1299,2263.4h-283.4v-340.8H1299V2263.4z M1025.8,2253.2h263v-320.4h-263V2253.2z"/>
		</g>
		<g>
			<path class="st2" d="M967.1,2001.4c-42.8,0-77.2,34.8-77.2,77.6v30.3c0,42.8,34.4,77.8,77.2,77.8h54.2v-185.7H967.1z
				 M1019,2153.1h-50.7c-27,0-49-22.4-49-49.4v-19.1c0-27,22-49.2,49-49.2h50.7V2153.1z"/>
			<path class="st3" d="M1026.3,2192.2h-59.3c-45.4,0-82.3-37.2-82.3-82.9V2079c0-45.6,36.9-82.7,82.3-82.7h59.3V2192.2z
				 M967.1,2006.5c-39.8,0-72.1,32.5-72.1,72.5v30.3c0,40.1,32.3,72.7,72.1,72.7h49.1v-23.8h-47.9c-29.8,0-54.1-24.5-54.1-54.5
				v-19.1c0-30,24.2-54.3,54.1-54.3h47.9v-23.8H967.1z M968.3,2040.5c-24.2,0-43.9,19.8-43.9,44.1v19.1c0,24.4,19.7,44.3,43.9,44.3
				h45.6v-107.6H968.3z"/>
		</g>
		<g>
			<path class="st2" d="M1167.9,1798.3l24.6-20.5c12-10,12-28.5,0-38.5l0,0c-12-10-12-28.5,0-38.5l23.5-19.5"/>
			<path class="st3" d="M1167.9,1803.4c-1.5,0-2.9-0.6-3.9-1.8c-1.8-2.2-1.5-5.4,0.7-7.2l24.6-20.5c4.6-3.8,7.2-9.4,7.2-15.3
				c0-5.9-2.6-11.5-7.2-15.3c-6.9-5.7-10.9-14.2-10.9-23.2c0-9,4-17.4,10.9-23.2l23.5-19.5c2.2-1.8,5.4-1.5,7.2,0.7
				c1.8,2.2,1.5,5.4-0.7,7.2l-23.5,19.5c-4.6,3.8-7.2,9.4-7.2,15.3c0,5.9,2.6,11.5,7.2,15.3c6.9,5.7,10.9,14.2,10.9,23.2
				c0,9-4,17.4-10.9,23.2l-24.6,20.5C1170.2,1803,1169.1,1803.4,1167.9,1803.4z"/>
		</g>
		<g>
			<path class="st2" d="M1109.1,1871.2l24.6-20.5c12-10,12-28.5,0-38.5l0,0c-12-10-12-28.5,0-38.5l23.5-19.5"/>
			<path class="st3" d="M1109.1,1876.3c-1.5,0-2.9-0.6-3.9-1.8c-1.8-2.2-1.5-5.4,0.7-7.2l24.6-20.5c4.6-3.8,7.2-9.4,7.2-15.3
				c0-5.9-2.6-11.5-7.2-15.3c-6.9-5.7-10.9-14.2-10.9-23.2c0-9,4-17.4,10.9-23.2l23.5-19.5c2.2-1.8,5.4-1.5,7.2,0.7
				c1.8,2.2,1.5,5.4-0.7,7.2l-23.5,19.5c-4.6,3.8-7.2,9.4-7.2,15.3c0,5.9,2.6,11.5,7.2,15.3c6.9,5.7,10.9,14.2,10.9,23.2
				c0,9-4,17.4-10.9,23.2l-24.6,20.5C1111.4,1875.9,1110.2,1876.3,1109.1,1876.3z"/>
		</g>
		<g>
			<rect x="1076.5" y="2040.3" class="st2" width="165.5" height="44.7"/>
			<path class="st3" d="M1247,2090.1h-175.7v-54.9H1247V2090.1z M1081.5,2080h155.3v-34.5h-155.3V2080z"/>
		</g>
	</g>
	<path class="st3" d="M2011.5,743.9H410.3c-2.8,0-5.1-2.3-5.1-5.1s2.3-5.1,5.1-5.1h1601.2c2.8,0,5.1,2.3,5.1,5.1
		S2014.3,743.9,2011.5,743.9z"/>
	<path class="st3" d="M2011.5,801.6H410.3c-2.8,0-5.1-2.3-5.1-5.1c0-2.8,2.3-5.1,5.1-5.1h1601.2c2.8,0,5.1,2.3,5.1,5.1
		C2016.6,799.4,2014.3,801.6,2011.5,801.6z"/>
	<g>
		<g>
			<rect x="1364.8" y="238.7" class="st2" width="130" height="499.7"/>
			<path class="st3" d="M1499.9,743.5h-140.2V233.6h140.2V743.5z M1369.9,733.3h119.8V243.8h-119.8V733.3z"/>
		</g>
		<path class="st3" d="M1494.8,329.1h-130c-2.8,0-5.1-2.3-5.1-5.1c0-2.8,2.3-5.1,5.1-5.1h130c2.8,0,5.1,2.3,5.1,5.1
			C1499.9,326.8,1497.6,329.1,1494.8,329.1z"/>
		<path class="st3" d="M1494.8,655.4h-130c-2.8,0-5.1-2.3-5.1-5.1c0-2.8,2.3-5.1,5.1-5.1h130c2.8,0,5.1,2.3,5.1,5.1
			C1499.9,653.1,1497.6,655.4,1494.8,655.4z"/>
	</g>
	<g>
		<g>
			<rect x="1237.5" y="238.7" class="st2" width="84" height="499.7"/>
			<path class="st3" d="M1326.6,743.5h-94.2V233.6h94.2V743.5z M1242.6,733.3h73.8V243.8h-73.8V733.3z"/>
		</g>
		<path class="st3" d="M1321.6,329.1h-84c-2.8,0-5.1-2.3-5.1-5.1c0-2.8,2.3-5.1,5.1-5.1h84c2.8,0,5.1,2.3,5.1,5.1
			C1326.6,326.8,1324.4,329.1,1321.6,329.1z"/>
		<path class="st3" d="M1321.6,655.4h-84c-2.8,0-5.1-2.3-5.1-5.1c0-2.8,2.3-5.1,5.1-5.1h84c2.8,0,5.1,2.3,5.1,5.1
			C1326.6,653.1,1324.4,655.4,1321.6,655.4z"/>
	</g>
	<g>
		<g>
			<rect x="1110.3" y="309.4" class="st2" width="84" height="427.3"/>
			<path class="st3" d="M1199.4,741.7h-94.2V304.3h94.2V741.7z M1115.4,731.5h73.8V314.5h-73.8V731.5z"/>
		</g>
		<path class="st3" d="M1194.3,387.4h-84c-2.8,0-5.1-2.3-5.1-5.1s2.3-5.1,5.1-5.1h84c2.8,0,5.1,2.3,5.1,5.1
			S1197.1,387.4,1194.3,387.4z"/>
		<path class="st3" d="M1194.3,666.4h-84c-2.8,0-5.1-2.3-5.1-5.1c0-2.8,2.3-5.1,5.1-5.1h84c2.8,0,5.1,2.3,5.1,5.1
			C1199.4,664.1,1197.1,666.4,1194.3,666.4z"/>
	</g>
	<g>
		<g>
			<rect x="983" y="187.7" class="st2" width="84" height="549"/>
			<path class="st3" d="M1072.1,741.9h-94.2V182.6h94.2V741.9z M988.1,731.7h73.8V192.8h-73.8V731.7z"/>
		</g>
		<path class="st3" d="M1067,286.6h-84c-2.8,0-5.1-2.3-5.1-5.1c0-2.8,2.3-5.1,5.1-5.1h84c2.8,0,5.1,2.3,5.1,5.1
			C1072.1,284.3,1069.8,286.6,1067,286.6z"/>
		<path class="st3" d="M1067,645h-84c-2.8,0-5.1-2.3-5.1-5.1s2.3-5.1,5.1-5.1h84c2.8,0,5.1,2.3,5.1,5.1S1069.8,645,1067,645z"/>
	</g>
	<g>
		<g>
			<rect x="766.6" y="251.8" class="st2" width="128.9" height="486.3"/>
			<path class="st3" d="M900.7,743.2H761.5V246.7h139.1V743.2z M771.7,733h118.7V256.9H771.7V733z"/>
		</g>
		<path class="st3" d="M895.6,339.9H766.6c-2.8,0-5.1-2.3-5.1-5.1c0-2.8,2.3-5.1,5.1-5.1h128.9c2.8,0,5.1,2.3,5.1,5.1
			C900.7,337.7,898.4,339.9,895.6,339.9z"/>
		<path class="st3" d="M895.6,657.4H766.6c-2.8,0-5.1-2.3-5.1-5.1s2.3-5.1,5.1-5.1h128.9c2.8,0,5.1,2.3,5.1,5.1
			S898.4,657.4,895.6,657.4z"/>
	</g>
	<g>
		<g>
			
				<rect x="600.5" y="357.2" transform="matrix(0.9311 0.3648 -0.3648 0.9311 242.7594 -199.6163)" class="st2" width="98.3" height="370.8"/>
			<path class="st3" d="M630.7,739.8l-101-39.6l139-354.7l101,39.6L630.7,739.8z M542.8,694.4l82.1,32.2l131.6-335.8l-82.1-32.2
				L542.8,694.4z"/>
		</g>
		<g>
			<line class="st2" x1="648.4" y1="411" x2="740" y2="446.9"/>
			<path class="st3" d="M740,452c-0.6,0-1.2-0.1-1.9-0.4l-91.5-35.9c-2.6-1-3.9-4-2.9-6.6c1-2.6,4-3.9,6.6-2.9l91.5,35.9
				c2.6,1,3.9,4,2.9,6.6C743.9,450.8,742,452,740,452z"/>
		</g>
		<g>
			<line class="st2" x1="560.1" y1="636.4" x2="651.6" y2="672.3"/>
			<path class="st3" d="M651.6,677.4c-0.6,0-1.2-0.1-1.9-0.4l-91.5-35.9c-2.6-1-3.9-4-2.9-6.6c1-2.6,4-3.9,6.6-2.9l91.5,35.9
				c2.6,1,3.9,4,2.9,6.6C655.6,676.2,653.7,677.4,651.6,677.4z"/>
		</g>
	</g>
	<g>
		<g>
			<circle class="st2" cx="3125.5" cy="483.8" r="318.7"/>
			<path class="st3" d="M3125.5,807.6c-86.5,0-167.8-33.7-229-94.8c-61.2-61.2-94.8-142.5-94.8-229c0-86.5,33.7-167.8,94.8-229
				c61.2-61.2,142.5-94.8,229-94.8s167.8,33.7,229,94.8c61.2,61.2,94.8,142.5,94.8,229c0,86.5-33.7,167.8-94.8,229
				C3293.3,774,3212,807.6,3125.5,807.6z M3125.5,170.2c-172.9,0-313.6,140.7-313.6,313.6c0,172.9,140.7,313.6,313.6,313.6
				s313.6-140.7,313.6-313.6C3439.2,310.9,3298.5,170.2,3125.5,170.2z"/>
		</g>
		<path class="st3" d="M3125.5,748.6c-70.7,0-137.2-27.5-187.2-77.5s-77.5-116.5-77.5-187.2c0-70.7,27.5-137.2,77.5-187.2
			s116.5-77.5,187.2-77.5c70.7,0,137.2,27.5,187.2,77.5s77.5,116.5,77.5,187.2c0,70.7-27.5,137.2-77.5,187.2
			S3196.3,748.6,3125.5,748.6z M3125.5,229.2c-140.4,0-254.6,114.2-254.6,254.6c0,140.4,114.2,254.6,254.6,254.6
			s254.6-114.2,254.6-254.6C3380.1,343.4,3265.9,229.2,3125.5,229.2z"/>
		<g>
			<path class="st3" d="M3116.9,505.8l-68.7-81.3c-1.8-2.1-1.5-5.4,0.6-7.2c2.1-1.8,5.4-1.5,7.2,0.6l62.1,73.5l126.5-106.9
				c2.1-1.8,5.4-1.5,7.2,0.6c1.8,2.1,1.5,5.4-0.6,7.2L3116.9,505.8z"/>
		</g>
		<path class="st3" d="M3123.4,285.7c-6.9,0-12.5-5.6-12.5-12.5c0-6.9,5.6-12.5,12.5-12.5c6.9,0,12.5,5.6,12.5,12.5
			C3135.9,280.1,3130.3,285.7,3123.4,285.7z M3123.4,270.9c-1.3,0-2.3,1-2.3,2.3c0,1.3,1,2.3,2.3,2.3c1.3,0,2.3-1,2.3-2.3
			C3125.7,271.9,3124.7,270.9,3123.4,270.9z"/>
		<path class="st3" d="M3123.4,707.1c-6.9,0-12.5-5.6-12.5-12.5c0-6.9,5.6-12.5,12.5-12.5c6.9,0,12.5,5.6,12.5,12.5
			C3135.9,701.5,3130.3,707.1,3123.4,707.1z M3123.4,692.2c-1.3,0-2.3,1-2.3,2.3c0,1.3,1,2.3,2.3,2.3c1.3,0,2.3-1,2.3-2.3
			C3125.7,693.3,3124.7,692.2,3123.4,692.2z"/>
		<path class="st3" d="M2912.7,496.4c-6.9,0-12.5-5.6-12.5-12.5c0-6.9,5.6-12.5,12.5-12.5c6.9,0,12.5,5.6,12.5,12.5
			C2925.2,490.8,2919.6,496.4,2912.7,496.4z M2912.7,481.6c-1.3,0-2.3,1-2.3,2.3c0,1.3,1,2.3,2.3,2.3c1.3,0,2.3-1,2.3-2.3
			C2915,482.6,2914,481.6,2912.7,481.6z"/>
		<path class="st3" d="M3334,496.4c-6.9,0-12.5-5.6-12.5-12.5c0-6.9,5.6-12.5,12.5-12.5c6.9,0,12.5,5.6,12.5,12.5
			C3346.6,490.8,3341,496.4,3334,496.4z M3334,481.6c-1.3,0-2.3,1-2.3,2.3c0,1.3,1,2.3,2.3,2.3c1.3,0,2.3-1,2.3-2.3
			C3336.4,482.6,3335.3,481.6,3334,481.6z"/>
	</g>
	<g>
		
			<rect x="1484.2" y="1927.5" transform="matrix(0.9628 -0.2703 0.2703 0.9628 -486.186 506.0385)" class="st2" width="220.1" height="181.5"/>
		<path class="st3" d="M1509.3,2141.7l-51.8-184.6l221.7-62.2l51.8,184.6L1509.3,2141.7z M1470,1964.1l46.3,165l202.1-56.7
			l-46.3-165L1470,1964.1z"/>
	</g>
	<g>
		<rect x="1758.7" y="1927.5" class="st2" width="220.1" height="181.5"/>
		<path class="st3" d="M1983.9,2114.1h-230.3v-191.7h230.3V2114.1z M1763.8,2103.9h209.9v-171.3h-209.9V2103.9z"/>
	</g>
	<g>
		<g>
			<rect x="3416.5" y="1959.2" class="st2" width="352.4" height="299.2"/>
			<path class="st3" d="M3774,2263.6h-362.6v-309.4H3774V2263.6z M3421.6,2253.4h342.2v-289h-342.2V2253.4z"/>
		</g>
		<path class="st3" d="M3592.9,1964c-2.8,0-5.1-2.3-5.1-5.1v-170l132.5-132.7v-109.7l112.3-112.2c2-2,5.2-2,7.2,0c2,2,2,5.2,0,7.2
			l-109.4,109.2v109.7L3598,1793.1v165.8C3598,1961.8,3595.7,1964,3592.9,1964z"/>
		<path class="st3" d="M3592.9,1796.4c-2.8,0-5.1-2.3-5.1-5.1v-156.6l-115.5-114.6v-130.5L3370,1287.3c-2-2-2-5.2,0-7.2
			c2-2,5.2-2,7.2,0l105.3,105.3v130.5l115.5,114.6v160.9C3598,1794.2,3595.7,1796.4,3592.9,1796.4z"/>
		<path class="st3" d="M3477.9,1392.7c-1.3,0-2.6-0.5-3.6-1.5c-2-2-2-5.2,0-7.2l92-92.1v-135.8c0-2.8,2.3-5.1,5.1-5.1
			s5.1,2.3,5.1,5.1v140l-95,95.1C3480.5,1392.2,3479.2,1392.7,3477.9,1392.7z"/>
		<path class="st3" d="M3476.8,1523h-105l-96.4-96.3c-2-2-2-5.2,0-7.2c2-2,5.2-2,7.2,0l93.4,93.4h100.7c2.8,0,5.1,2.3,5.1,5.1
			C3481.9,1520.7,3479.7,1523,3476.8,1523z"/>
		<path class="st3" d="M3724.7,1553.7c-1.3,0-2.6-0.5-3.6-1.5l-82.3-82.2v-84.7l74.2-74.1c2-2,5.2-2,7.2,0c2,2,2,5.2,0,7.2
			l-71.2,71.1v76.2l79.3,79.2c2,2,2,5.2,0,7.2C3727.3,1553.2,3726,1553.7,3724.7,1553.7z"/>
		<g>
			<g>
				<path class="st2" d="M3705.8,1290.6L3705.8,1290.6L3705.8,1290.6c-43.3-35.6-43.3-93.3,0-128.8h0l0,0
					C3749.1,1197.4,3749.1,1255,3705.8,1290.6z"/>
				<path class="st3" d="M3705.8,1297.2l-3.2-2.7c-22.1-18.2-34.3-42.5-34.3-68.3c0-25.9,12.2-50.2,34.3-68.3l3.2-2.7l3.2,2.7
					c22.1,18.2,34.3,42.5,34.3,68.3c0,25.9-12.2,50.2-34.3,68.4L3705.8,1297.2z M3705.8,1168.5c-17.7,15.9-27.4,36.2-27.4,57.7
					c0,21.5,9.7,41.8,27.4,57.7c17.7-15.9,27.4-36.2,27.4-57.7C3733.2,1204.7,3723.5,1184.4,3705.8,1168.5z"/>
			</g>
			<path class="st3" d="M3705,1286.9c-2.8,0-5.1-2.3-5.1-5.1v-118.9c0-2.8,2.3-5.1,5.1-5.1c2.8,0,5.1,2.3,5.1,5.1v118.9
				C3710.1,1284.6,3707.8,1286.9,3705,1286.9z"/>
		</g>
		<g>
			<g>
				<path class="st2" d="M3789.5,1535.1L3789.5,1535.1L3789.5,1535.1c47.3-30,102.1-11.9,122.4,40.3l0,0h0
					C3864.5,1605.4,3809.7,1587.3,3789.5,1535.1z"/>
				<path class="st3" d="M3864.5,1595c-8.7,0-17.3-1.4-25.6-4.1c-24.6-8.1-43.8-27.3-54.2-54l-1.5-3.9l3.5-2.2
					c24.2-15.3,51.1-19.3,75.7-11.2c24.6,8.1,43.8,27.3,54.2,54l1.5,3.9l-3.5,2.2C3898.6,1589.8,3881.4,1595,3864.5,1595z
					 M3795.9,1537.2c9.5,21.8,25.8,37.3,46.2,44.1c20.4,6.7,42.8,3.9,63.4-7.9c-9.5-21.8-25.8-37.3-46.2-44.1
					C3838.8,1522.5,3816.5,1525.3,3795.9,1537.2z"/>
			</g>
			<path class="st3" d="M3911.2,1579.5c-0.5,0-1.1-0.1-1.6-0.3l-113.2-37.3c-2.7-0.9-4.1-3.8-3.2-6.4c0.9-2.7,3.8-4.1,6.4-3.2
				l113.2,37.3c2.7,0.9,4.1,3.8,3.2,6.4C3915.3,1578.1,3913.3,1579.5,3911.2,1579.5z"/>
		</g>
		<g>
			<g>
				<path class="st2" d="M3415.8,1216.9L3415.8,1216.9L3415.8,1216.9c47.3-30,102.1-11.9,122.4,40.3v0l0,0
					C3490.8,1287.2,3436,1269.1,3415.8,1216.9z"/>
				<path class="st3" d="M3490.8,1276.8c-8.7,0-17.3-1.4-25.6-4.1c-24.6-8.1-43.8-27.3-54.2-54l-1.5-3.9l3.5-2.2
					c24.2-15.3,51.1-19.3,75.7-11.2c24.6,8.1,43.8,27.3,54.2,54l1.5,3.9l-3.5,2.2C3524.9,1271.6,3507.7,1276.8,3490.8,1276.8z
					 M3422.2,1219c9.5,21.8,25.8,37.3,46.2,44.1c20.4,6.7,42.8,3.9,63.4-7.9c-9.5-21.8-25.8-37.3-46.2-44.1
					C3465.1,1204.3,3442.8,1207.1,3422.2,1219z"/>
			</g>
			<path class="st3" d="M3537.5,1261.3c-0.5,0-1.1-0.1-1.6-0.3l-113.2-37.3c-2.7-0.9-4.1-3.8-3.2-6.4c0.9-2.7,3.8-4.1,6.4-3.2
				l113.2,37.3c2.7,0.9,4.1,3.8,3.2,6.4C3541.6,1259.9,3539.6,1261.3,3537.5,1261.3z"/>
		</g>
		<g>
			<g>
				<path class="st2" d="M3218.1,1498.5L3218.1,1498.5L3218.1,1498.5c47.3-30,102.1-11.9,122.4,40.3v0v0
					C3293.1,1568.8,3238.3,1550.8,3218.1,1498.5z"/>
				<path class="st3" d="M3293.1,1558.4c-8.7,0-17.3-1.4-25.6-4.1c-24.6-8.1-43.8-27.3-54.2-54l-1.5-3.9l3.5-2.2
					c24.2-15.3,51.1-19.3,75.7-11.2c24.6,8.1,43.8,27.3,54.2,54l1.5,3.9l-3.5,2.2C3327.2,1553.3,3310,1558.4,3293.1,1558.4z
					 M3224.5,1500.6c9.5,21.8,25.8,37.3,46.2,44.1c20.4,6.7,42.8,3.9,63.4-7.9c-9.5-21.8-25.8-37.3-46.2-44.1
					C3267.4,1486,3245.1,1488.8,3224.5,1500.6z"/>
			</g>
			<path class="st3" d="M3339.8,1542.9c-0.5,0-1.1-0.1-1.6-0.3l-113.2-37.3c-2.7-0.9-4.1-3.8-3.2-6.4c0.9-2.7,3.8-4.1,6.4-3.2
				l113.2,37.3c2.7,0.9,4.1,3.8,3.2,6.4C3343.9,1541.6,3341.9,1542.9,3339.8,1542.9z"/>
		</g>
		<g>
			<g>
				<path class="st2" d="M3134.2,1367.2L3134.2,1367.2L3134.2,1367.2c47.3-30,102.1-11.9,122.4,40.3v0l0,0
					C3209.2,1437.5,3154.4,1419.4,3134.2,1367.2z"/>
				<path class="st3" d="M3209.2,1427.1c-8.7,0-17.3-1.4-25.6-4.1c-24.6-8.1-43.8-27.3-54.2-54l-1.5-3.9l3.5-2.2
					c24.2-15.3,51.1-19.3,75.7-11.2c24.6,8.1,43.8,27.3,54.2,54l1.5,3.9l-3.5,2.2C3243.2,1421.9,3226.1,1427.1,3209.2,1427.1z
					 M3140.5,1369.3c9.5,21.8,25.8,37.3,46.2,44.1c20.4,6.7,42.8,3.9,63.4-7.9c-9.5-21.8-25.8-37.3-46.2-44.1
					C3183.5,1354.6,3161.1,1357.4,3140.5,1369.3z"/>
			</g>
			<path class="st3" d="M3255.8,1411.6c-0.5,0-1.1-0.1-1.6-0.3l-113.2-37.3c-2.7-0.9-4.1-3.8-3.2-6.4c0.9-2.7,3.8-4.1,6.4-3.2
				l113.2,37.3c2.7,0.9,4.1,3.8,3.2,6.4C3259.9,1410.2,3258,1411.6,3255.8,1411.6z"/>
		</g>
		<g>
			<g>
				<path class="st2" d="M3218.1,1227.7L3218.1,1227.7L3218.1,1227.7c47.3-30,102.1-11.9,122.4,40.3v0v0
					C3293.1,1298,3238.3,1280,3218.1,1227.7z"/>
				<path class="st3" d="M3293.1,1287.6c-8.7,0-17.3-1.4-25.6-4.1c-24.6-8.1-43.8-27.3-54.2-54l-1.5-3.9l3.5-2.2
					c24.2-15.3,51.1-19.3,75.7-11.2s43.8,27.3,54.2,54l1.5,3.9l-3.5,2.2C3327.2,1282.5,3310,1287.6,3293.1,1287.6z M3224.5,1229.8
					c9.5,21.8,25.8,37.3,46.2,44.1c20.4,6.7,42.8,3.9,63.4-7.9c-9.5-21.8-25.8-37.3-46.2-44.1
					C3267.4,1215.1,3245.1,1218,3224.5,1229.8z"/>
			</g>
			<path class="st3" d="M3339.8,1272.1c-0.5,0-1.1-0.1-1.6-0.3l-113.2-37.3c-2.7-0.9-4.1-3.8-3.2-6.4c0.9-2.7,3.8-4.1,6.4-3.2
				l113.2,37.3c2.7,0.9,4.1,3.8,3.2,6.4C3343.9,1270.8,3341.9,1272.1,3339.8,1272.1z"/>
		</g>
		<g>
			<g>
				<path class="st2" d="M3429.3,1091L3429.3,1091L3429.3,1091c47.3-30,102.1-11.9,122.4,40.3v0l0,0
					C3504.3,1161.2,3449.6,1143.2,3429.3,1091z"/>
				<path class="st3" d="M3504.3,1150.9c-8.7,0-17.3-1.4-25.6-4.1c-24.6-8.1-43.8-27.3-54.2-54l-1.5-3.9l3.5-2.2
					c24.2-15.3,51.1-19.3,75.7-11.2c24.6,8.1,43.8,27.3,54.2,54l1.5,3.9l-3.5,2.2C3538.4,1145.7,3521.2,1150.9,3504.3,1150.9z
					 M3435.7,1093.1c9.5,21.8,25.8,37.3,46.2,44.1c20.4,6.7,42.8,3.9,63.4-7.9c-9.5-21.8-25.8-37.3-46.2-44.1
					C3478.6,1078.4,3456.3,1081.2,3435.7,1093.1z"/>
			</g>
			<path class="st3" d="M3551,1135.4c-0.5,0-1.1-0.1-1.6-0.3l-113.2-37.3c-2.7-0.9-4.1-3.8-3.2-6.4c0.9-2.7,3.8-4.1,6.4-3.2
				l113.2,37.3c2.7,0.9,4.1,3.8,3.2,6.4C3555.1,1134,3553.1,1135.4,3551,1135.4z"/>
		</g>
		<g>
			<g>
				<path class="st2" d="M3499.7,1429.5L3499.7,1429.5L3499.7,1429.5c47.3-30,102.1-11.9,122.4,40.3l0,0l0,0
					C3574.8,1499.8,3520,1481.7,3499.7,1429.5z"/>
				<path class="st3" d="M3574.7,1489.4c-8.7,0-17.3-1.4-25.6-4.1c-24.6-8.1-43.8-27.3-54.2-54l-1.5-3.9l3.5-2.2
					c24.2-15.3,51.1-19.3,75.7-11.2c24.6,8.1,43.8,27.3,54.2,54l1.5,3.9l-3.5,2.2C3608.8,1484.2,3591.6,1489.4,3574.7,1489.4z
					 M3506.1,1431.6c9.5,21.8,25.8,37.3,46.2,44.1c20.4,6.7,42.8,3.9,63.4-7.9c-9.5-21.8-25.8-37.3-46.2-44.1
					C3549.1,1416.9,3526.7,1419.7,3506.1,1431.6z"/>
			</g>
			<path class="st3" d="M3621.4,1473.9c-0.5,0-1.1-0.1-1.6-0.3l-113.2-37.3c-2.7-0.9-4.1-3.8-3.2-6.4c0.9-2.7,3.8-4.1,6.4-3.2
				l113.2,37.3c2.7,0.9,4.1,3.8,3.2,6.4C3625.5,1472.5,3623.5,1473.9,3621.4,1473.9z"/>
		</g>
		<g>
			<g>
				<path class="st2" d="M3749.3,1470.6L3749.3,1470.6L3749.3,1470.6c-44.8-33.6-47.4-91.2-5.8-128.7v0l0,0
					C3788.4,1375.5,3790.9,1433.2,3749.3,1470.6z"/>
				<path class="st3" d="M3749.6,1477.2l-3.4-2.5c-22.9-17.2-36.2-40.9-37.4-66.7c-1.2-25.9,9.9-50.7,31.2-69.8l3.1-2.8l3.4,2.5
					c22.9,17.2,36.2,40.9,37.4,66.7c1.2,25.9-9.9,50.7-31.2,69.8L3749.6,1477.2z M3743.8,1348.6c-17,16.6-25.7,37.4-24.8,58.9
					c1,21.5,11.5,41.4,29.9,56.4c17-16.6,25.7-37.4,24.8-58.9C3772.8,1383.6,3762.2,1363.7,3743.8,1348.6z"/>
			</g>
			<path class="st3" d="M3748.2,1467.1c-2.7,0-5-2.1-5.1-4.9l-5.3-119c-0.1-2.8,2.1-5.2,4.9-5.3c2.8-0.1,5.2,2.1,5.3,4.9l5.3,119
				c0.1,2.8-2.1,5.2-4.9,5.3C3748.3,1467.1,3748.2,1467.1,3748.2,1467.1z"/>
		</g>
		<g>
			<g>
				<path class="st2" d="M3367.5,1240.5L3367.5,1240.5L3367.5,1240.5c-44.8-33.6-47.4-91.2-5.8-128.7v0l0,0
					C3406.5,1145.4,3409.1,1203,3367.5,1240.5z"/>
				<path class="st3" d="M3367.8,1247l-3.4-2.5c-22.9-17.2-36.2-40.9-37.4-66.7c-1.2-25.9,9.9-50.7,31.2-69.8l3.1-2.8l3.4,2.5
					c22.9,17.2,36.2,40.9,37.4,66.7c1.2,25.9-9.9,50.7-31.2,69.8L3367.8,1247z M3362,1118.5c-17,16.6-25.7,37.4-24.8,58.9
					c1,21.5,11.5,41.4,29.9,56.4c17-16.6,25.7-37.4,24.8-58.9C3391,1153.4,3380.4,1133.5,3362,1118.5z"/>
			</g>
			<path class="st3" d="M3366.3,1236.9c-2.7,0-5-2.1-5.1-4.9l-5.3-119c-0.1-2.8,2.1-5.2,4.9-5.3c2.8-0.1,5.2,2.1,5.3,4.9l5.3,119
				c0.1,2.8-2.1,5.2-4.9,5.3C3366.5,1236.9,3366.4,1236.9,3366.3,1236.9z"/>
		</g>
		<g>
			<g>
				<path class="st2" d="M3363.4,1447.6L3363.4,1447.6L3363.4,1447.6c-44.8-33.6-47.4-91.2-5.8-128.7l0,0l0,0
					C3402.5,1352.5,3405.1,1410.1,3363.4,1447.6z"/>
				<path class="st3" d="M3363.7,1454.2l-3.4-2.5c-22.9-17.2-36.2-40.9-37.4-66.7c-1.2-25.9,9.9-50.7,31.2-69.8l3.1-2.8l3.4,2.5
					c22.9,17.2,36.2,40.9,37.4,66.7c1.2,25.9-9.9,50.7-31.2,69.8L3363.7,1454.2z M3357.9,1325.6c-17,16.6-25.7,37.4-24.8,58.9
					c1,21.5,11.5,41.4,29.9,56.4c17-16.6,25.7-37.4,24.8-58.9C3386.9,1360.6,3376.3,1340.7,3357.9,1325.6z"/>
			</g>
			<path class="st3" d="M3362.3,1444.1c-2.7,0-5-2.1-5.1-4.9l-5.3-119c-0.1-2.8,2.1-5.2,4.9-5.3c2.8-0.1,5.2,2.1,5.3,4.9l5.3,119
				c0.1,2.8-2.1,5.2-4.9,5.3C3362.4,1444.1,3362.3,1444.1,3362.3,1444.1z"/>
		</g>
		<g>
			<g>
				<path class="st2" d="M3661.3,1679.2L3661.3,1679.2L3661.3,1679.2c-44.8-33.6-47.4-91.2-5.8-128.7v0v0
					C3700.4,1584.1,3702.9,1641.7,3661.3,1679.2z"/>
				<path class="st3" d="M3661.6,1685.7l-3.4-2.5c-22.9-17.2-36.2-40.9-37.4-66.7c-1.2-25.9,9.9-50.7,31.2-69.8l3.1-2.8l3.4,2.5
					c22.9,17.2,36.2,40.9,37.4,66.7c1.2,25.9-9.9,50.7-31.2,69.8L3661.6,1685.7z M3655.8,1557.2c-17,16.6-25.7,37.4-24.8,58.9
					c1,21.5,11.5,41.4,29.9,56.4c17-16.6,25.7-37.4,24.8-58.9C3684.8,1592.1,3674.2,1572.2,3655.8,1557.2z"/>
			</g>
			<path class="st3" d="M3660.1,1675.6c-2.7,0-5-2.1-5.1-4.9l-5.3-119c-0.1-2.8,2.1-5.2,4.9-5.3c2.8-0.1,5.2,2,5.3,4.9l5.3,119
				c0.1,2.8-2.1,5.2-4.9,5.3C3660.3,1675.6,3660.2,1675.6,3660.1,1675.6z"/>
		</g>
		<g>
			<g>
				<path class="st2" d="M3381.1,1653.1L3381.1,1653.1L3381.1,1653.1c-1.7-56,41.8-93.9,97-84.7l0,0v0
					C3479.8,1624.4,3436.3,1662.3,3381.1,1653.1z"/>
				<path class="st3" d="M3397.5,1659.6c-5.6,0-11.4-0.5-17.3-1.5l-4.1-0.7l-0.1-4.2c-0.9-28.6,9.4-53.8,28.9-70.8
					s45.8-23.8,74.1-19.1l4.1,0.7l0.1,4.2c0.9,28.6-9.4,53.8-28.9,70.8C3438.8,1652.5,3419.1,1659.6,3397.5,1659.6z M3386.1,1648.7
					c23.6,2.9,45.3-3.2,61.5-17.3c16.2-14.1,25.1-34.8,25.5-58.6c-23.6-2.9-45.3,3.2-61.5,17.3
					C3395.4,1604.3,3386.4,1625,3386.1,1648.7z"/>
			</g>
			<path class="st3" d="M3387.1,1651.9c-1.4,0-2.8-0.6-3.8-1.7c-1.9-2.1-1.6-5.3,0.5-7.2l89.7-78.4c2.1-1.9,5.3-1.6,7.2,0.5
				c1.9,2.1,1.6,5.3-0.5,7.2l-89.7,78.4C3389.5,1651.5,3388.3,1651.9,3387.1,1651.9z"/>
		</g>
		<g>
			<g>
				<path class="st2" d="M3595,1135.9L3595,1135.9L3595,1135.9c-1.7-56,41.8-93.9,97-84.7l0,0v0
					C3693.7,1107.1,3650.3,1145.1,3595,1135.9z"/>
				<path class="st3" d="M3611.4,1142.4c-5.6,0-11.4-0.5-17.3-1.5l-4.1-0.7l-0.1-4.2c-0.9-28.6,9.4-53.8,28.9-70.8
					c19.5-17,45.8-23.8,74.1-19.1l4.1,0.7l0.1,4.2c0.9,28.6-9.4,53.8-28.9,70.8C3652.8,1135.3,3633,1142.4,3611.4,1142.4z
					 M3600,1131.5c23.6,2.9,45.3-3.2,61.5-17.3s25.1-34.8,25.5-58.6c-23.6-2.9-45.3,3.2-61.5,17.3
					C3609.3,1087,3600.4,1107.7,3600,1131.5z"/>
			</g>
			<path class="st3" d="M3601.1,1134.7c-1.4,0-2.8-0.6-3.8-1.7c-1.9-2.1-1.6-5.3,0.5-7.2l89.7-78.4c2.1-1.9,5.3-1.6,7.2,0.5
				c1.9,2.1,1.6,5.3-0.5,7.2l-89.7,78.4C3603.4,1134.3,3602.2,1134.7,3601.1,1134.7z"/>
		</g>
		<g>
			<g>
				<path class="st2" d="M3749.3,1305.1L3749.3,1305.1L3749.3,1305.1c-1.7-56,41.8-93.9,97-84.7h0v0
					C3848.1,1276.4,3804.6,1314.3,3749.3,1305.1z"/>
				<path class="st3" d="M3765.8,1311.6c-5.6,0-11.4-0.5-17.3-1.5l-4.1-0.7l-0.1-4.2c-0.9-28.6,9.4-53.8,28.9-70.8
					c19.5-17,45.8-23.8,74.1-19.1l4.1,0.7l0.1,4.2c0.9,28.6-9.4,53.8-28.9,70.8C3807.1,1304.6,3787.4,1311.6,3765.8,1311.6z
					 M3754.4,1300.7c23.6,2.9,45.3-3.2,61.5-17.3c16.2-14.1,25.1-34.8,25.5-58.6c-23.6-2.9-45.3,3.2-61.5,17.3
					C3763.7,1256.3,3754.7,1277,3754.4,1300.7z"/>
			</g>
			<path class="st3" d="M3755.4,1303.9c-1.4,0-2.8-0.6-3.8-1.7c-1.9-2.1-1.6-5.3,0.5-7.2l89.7-78.4c2.1-1.8,5.3-1.6,7.2,0.5
				c1.9,2.1,1.6,5.3-0.5,7.2l-89.7,78.4C3757.8,1303.5,3756.6,1303.9,3755.4,1303.9z"/>
		</g>
		<g>
			<g>
				<path class="st2" d="M3860.4,1420.2L3860.4,1420.2L3860.4,1420.2c-1.7-56,41.8-93.9,97-84.7l0,0v0
					C3959.1,1391.5,3915.6,1429.4,3860.4,1420.2z"/>
				<path class="st3" d="M3876.8,1426.7c-5.6,0-11.4-0.5-17.3-1.5l-4.1-0.7l-0.1-4.2c-0.9-28.6,9.4-53.8,28.9-70.8
					c19.5-17,45.8-23.8,74.1-19.1l4.1,0.7l0.1,4.2c0.9,28.6-9.4,53.8-28.9,70.8C3918.1,1419.6,3898.4,1426.7,3876.8,1426.7z
					 M3865.4,1415.8c23.6,2.9,45.3-3.2,61.5-17.3c16.2-14.1,25.1-34.8,25.5-58.6c-23.6-2.9-45.3,3.2-61.5,17.3
					S3865.7,1392.1,3865.4,1415.8z"/>
			</g>
			<path class="st3" d="M3866.4,1419c-1.4,0-2.8-0.6-3.8-1.7c-1.9-2.1-1.6-5.3,0.5-7.2l89.7-78.4c2.1-1.9,5.3-1.6,7.2,0.5
				c1.9,2.1,1.6,5.3-0.5,7.2l-89.7,78.4C3868.8,1418.6,3867.6,1419,3866.4,1419z"/>
		</g>
		<g>
			<path class="st3" d="M3442.5,2034.1c-1.3,0-2.6-0.5-3.6-1.5c-2-2-2-5.2,0-7.2l47.7-47.7c2-2,5.2-2,7.2,0c2,2,2,5.2,0,7.2
				l-47.7,47.7C3445.1,2033.6,3443.8,2034.1,3442.5,2034.1z"/>
			<path class="st3" d="M3442.5,2099.7c-1.3,0-2.6-0.5-3.6-1.5c-2-2-2-5.2,0-7.2l111.9-111.9c2-2,5.2-2,7.2,0c2,2,2,5.2,0,7.2
				l-111.9,111.9C3445.1,2099.2,3443.8,2099.7,3442.5,2099.7z"/>
			<path class="st3" d="M3443.3,2164.4c-1.3,0-2.6-0.5-3.6-1.5c-2-2-2-5.2,0-7.2l176.7-176.7c2-2,5.2-2,7.2,0c2,2,2,5.2,0,7.2
				l-176.7,176.7C3445.9,2163.9,3444.6,2164.4,3443.3,2164.4z"/>
			<path class="st3" d="M3443.3,2230c-1.3,0-2.6-0.5-3.6-1.5c-2-2-2-5.2,0-7.2l243.5-243.5c2-2,5.2-2,7.2,0c2,2,2,5.2,0,7.2
				l-243.5,243.5C3445.9,2229.5,3444.6,2230,3443.3,2230z"/>
			<path class="st3" d="M3496.5,2242.4c-1.3,0-2.6-0.5-3.6-1.5c-2-2-2-5.2,0-7.2l244-244c2-2,5.2-2,7.2,0c2,2,2,5.2,0,7.2l-244,244
				C3499.1,2241.9,3497.8,2242.4,3496.5,2242.4z"/>
			<path class="st3" d="M3564.7,2239.7c-1.3,0-2.6-0.5-3.6-1.5c-2-2-2-5.2,0-7.2l175.9-175.9c2-2,5.2-2,7.2,0c2,2,2,5.2,0,7.2
				l-175.9,175.9C3567.3,2239.2,3566,2239.7,3564.7,2239.7z"/>
			<path class="st3" d="M3627.3,2242.7c-1.3,0-2.6-0.5-3.6-1.5c-2-2-2-5.2,0-7.2l116-116c2-2,5.2-2,7.2,0c2,2,2,5.2,0,7.2l-116,116
				C3629.9,2242.2,3628.6,2242.7,3627.3,2242.7z"/>
			<path class="st3" d="M3695.7,2239.8c-1.3,0-2.6-0.5-3.6-1.5c-2-2-2-5.2,0-7.2l45.8-45.8c2-2,5.2-2,7.2,0c2,2,2,5.2,0,7.2
				l-45.8,45.8C3698.4,2239.3,3697.1,2239.8,3695.7,2239.8z"/>
		</g>
		<g>
			<path class="st3" d="M3743.3,2034.1c-1.3,0-2.6-0.5-3.6-1.5L3692,1985c-2-2-2-5.2,0-7.2c2-2,5.2-2,7.2,0l47.7,47.7
				c2,2,2,5.2,0,7.2C3745.9,2033.6,3744.6,2034.1,3743.3,2034.1z"/>
			<path class="st3" d="M3743.3,2099.7c-1.3,0-2.6-0.5-3.6-1.5l-111.9-111.9c-2-2-2-5.2,0-7.2c2-2,5.2-2,7.2,0l111.9,111.9
				c2,2,2,5.2,0,7.2C3745.9,2099.2,3744.6,2099.7,3743.3,2099.7z"/>
			<path class="st3" d="M3742.4,2164.4c-1.3,0-2.6-0.5-3.6-1.5l-176.7-176.7c-2-2-2-5.2,0-7.2c2-2,5.2-2,7.2,0l176.7,176.7
				c2,2,2,5.2,0,7.2C3745.1,2163.9,3743.7,2164.4,3742.4,2164.4z"/>
			<path class="st3" d="M3742.4,2230c-1.3,0-2.6-0.5-3.6-1.5L3495.3,1985c-2-2-2-5.2,0-7.2c2-2,5.2-2,7.2,0l243.5,243.5
				c2,2,2,5.2,0,7.2C3745.1,2229.5,3743.7,2230,3742.4,2230z"/>
			<path class="st3" d="M3689.3,2242.4c-1.3,0-2.6-0.5-3.6-1.5l-244-244c-2-2-2-5.2,0-7.2c2-2,5.2-2,7.2,0l244,244c2,2,2,5.2,0,7.2
				C3691.9,2241.9,3690.6,2242.4,3689.3,2242.4z"/>
			<path class="st3" d="M3621.1,2239.7c-1.3,0-2.6-0.5-3.6-1.5l-175.9-175.9c-2-2-2-5.2,0-7.2c2-2,5.2-2,7.2,0l175.9,175.9
				c2,2,2,5.2,0,7.2C3623.7,2239.2,3622.4,2239.7,3621.1,2239.7z"/>
			<path class="st3" d="M3558.5,2242.7c-1.3,0-2.6-0.5-3.6-1.5l-116-116c-2-2-2-5.2,0-7.2c2-2,5.2-2,7.2,0l116,116c2,2,2,5.2,0,7.2
				C3561.1,2242.2,3559.8,2242.7,3558.5,2242.7z"/>
			<path class="st3" d="M3490,2239.8c-1.3,0-2.6-0.5-3.6-1.5l-45.8-45.8c-2-2-2-5.2,0-7.2c2-2,5.2-2,7.2,0l45.8,45.8
				c2,2,2,5.2,0,7.2C3492.6,2239.3,3491.3,2239.8,3490,2239.8z"/>
		</g>
	</g>
	<g>
		<g>
			<path class="st2" d="M690.1,2113.1H554.4c-59.1,0-107,47.9-107,107v37.9h349.8v-37.9C797.2,2161,749.2,2113.1,690.1,2113.1z"/>
			<path class="st3" d="M802.3,2263.1h-360v-28.8c0-69.6,56.7-126.3,126.3-126.3H676c69.6,0,126.3,56.7,126.3,126.3V2263.1z
				 M452.5,2252.9h339.6v-18.6c0-64-52.1-116.1-116.1-116.1H568.6c-64,0-116.1,52.1-116.1,116.1V2252.9z"/>
		</g>
		<g>
			<rect x="576.8" y="1620.9" class="st2" width="31.6" height="492"/>
			<path class="st3" d="M613.5,2118h-41.8v-502.2h41.8V2118z M581.9,2107.8h21.4V1626h-21.4V2107.8z"/>
		</g>
		<g>
			<rect x="632.3" y="1620.9" class="st2" width="31.6" height="492"/>
			<path class="st3" d="M669,2118h-41.8v-502.2H669V2118z M637.4,2107.8h21.4V1626h-21.4V2107.8z"/>
		</g>
		<g>
			<g>
				
					<rect x="724.2" y="1144.5" transform="matrix(0.8182 0.575 -0.575 0.8182 934.0037 -172.679)" class="st2" width="31.6" height="492"/>
				<path class="st3" d="M612.8,1607.9l-34.2-24L867.3,1173l34.2,24L612.8,1607.9z M592.8,1581.4l17.5,12.3l277-394.2l-17.5-12.3
					L592.8,1581.4z"/>
			</g>
			<g>
				
					<rect x="769.7" y="1176.4" transform="matrix(0.8182 0.575 -0.575 0.8182 960.6245 -192.9951)" class="st2" width="31.6" height="492"/>
				<path class="st3" d="M658.2,1639.8l-34.2-24l288.7-410.9l34.2,24L658.2,1639.8z M638.2,1613.3l17.5,12.3l277-394.2l-17.5-12.3
					L638.2,1613.3z"/>
			</g>
		</g>
		<g>
			<circle class="st2" cx="621.3" cy="1593.1" r="98.4"/>
			<path class="st3" d="M621.3,1696.6c-57.1,0-103.5-46.4-103.5-103.5c0-57.1,46.4-103.5,103.5-103.5s103.5,46.4,103.5,103.5
				C724.8,1650.1,678.4,1696.6,621.3,1696.6z M621.3,1499.7c-51.5,0-93.3,41.9-93.3,93.3c0,51.5,41.9,93.3,93.3,93.3
				s93.3-41.9,93.3-93.3C714.6,1541.6,672.8,1499.7,621.3,1499.7z"/>
		</g>
		<g>
			<circle class="st2" cx="621.3" cy="1593.1" r="70.5"/>
			<path class="st3" d="M621.3,1668.7c-41.7,0-75.6-33.9-75.6-75.6c0-41.7,33.9-75.6,75.6-75.6c41.7,0,75.6,33.9,75.6,75.6
				C696.9,1634.8,663,1668.7,621.3,1668.7z M621.3,1527.6c-36.1,0-65.4,29.3-65.4,65.4c0,36.1,29.3,65.4,65.4,65.4
				s65.4-29.3,65.4-65.4C686.7,1557,657.4,1527.6,621.3,1527.6z"/>
		</g>
		<g>
			<g>
				<path class="st2" d="M1010.2,1095.9l-100,126.9l-99.9-78.7c-25.7-20.2-30.1-57.4-9.9-83.1l26.7-33.9
					c20.2-25.7,57.4-30.1,83.1-9.9L1010.2,1095.9z"/>
				<path class="st3" d="M911.1,1230l-97.8-77c-31.2-24.6-36.6-70-12-101.2l17-21.6c11.9-15.1,29-24.7,48.1-27
					c19.1-2.3,38,3,53.1,15l97.8,77L911.1,1230z M875,1012.8c-18.3,0-36.5,8.1-48.7,23.6l-17,21.6c-21.1,26.8-16.5,65.8,10.3,86.9
					l89.8,70.7l93.7-118.9l-89.8-70.7C901.9,1017.1,888.4,1012.8,875,1012.8z"/>
			</g>
			<g>
				<path class="st2" d="M1218.4,1123.7l-232.5,295.1l-101.4-79.9c-22.4-17.6-26.2-50.1-8.6-72.5l168.6-214
					c17.6-22.4,50.1-26.2,72.5-8.6L1218.4,1123.7z"/>
				<path class="st3" d="M986.8,1426l-100.1-78.8c-27.5-21.7-32.3-61.7-10.6-89.3l160.1-203.3c21.7-27.5,61.7-32.3,89.3-10.6
					l100.1,78.8L986.8,1426z M1086.3,1040.6c-2.1,0-4.3,0.1-6.4,0.4c-14.2,1.7-26.8,8.8-35.6,20l-160.1,203.3
					c-18.2,23.1-14.2,56.7,8.9,74.9l92.1,72.5l226.2-287.1l-92.1-72.5C1109.7,1044.5,1098.2,1040.6,1086.3,1040.6z"/>
			</g>
			<g>
				<path class="st2" d="M1141.1,1298.6l-12.6,16c-9.9,12.5-28,14.7-40.5,4.8l-14-11.1l48.3-61.3l14,11.1
					C1148.8,1268,1151,1286.1,1141.1,1298.6z"/>
				<path class="st3" d="M1105.2,1329.1c-8.2,0-16.4-2.6-23.3-8.1l-15.1-11.9l54.6-69.3l15.1,11.9c16.3,12.9,19.2,36.7,6.3,53
					l-7.9,10C1127.4,1324.2,1116.3,1329.1,1105.2,1329.1z M1081.1,1307.5l7,5.6c11.9,9.4,29.3,7.3,38.7-4.6l7.9-10
					c9.4-11.9,7.3-29.3-4.6-38.7l-7-5.6L1081.1,1307.5z M1138.8,1301.6L1138.8,1301.6L1138.8,1301.6z"/>
			</g>
		</g>
		<path class="st3" d="M1101.6,1434.1c-2.8,0-5.1-2.3-5.1-5.1V1361c0-2.8,2.3-5.1,5.1-5.1c2.8,0,5.1,2.3,5.1,5.1v67.9
			C1106.7,1431.8,1104.4,1434.1,1101.6,1434.1z"/>
		<path class="st3" d="M1247.1,1277.2h-67.9c-2.8,0-5.1-2.3-5.1-5.1c0-2.8,2.3-5.1,5.1-5.1h67.9c2.8,0,5.1,2.3,5.1,5.1
			C1252.2,1275,1250,1277.2,1247.1,1277.2z"/>
		<path class="st3" d="M1181,1363.9c-1.3,0-2.6-0.5-3.6-1.5l-26.5-26.5c-2-2-2-5.2,0-7.2c2-2,5.2-2,7.2,0l26.5,26.5c2,2,2,5.2,0,7.2
			C1183.6,1363.5,1182.3,1363.9,1181,1363.9z"/>
		<path class="st3" d="M1225.6,1408.6c-1.3,0-2.6-0.5-3.6-1.5l-26.5-26.5c-2-2-2-5.2,0-7.2c2-2,5.2-2,7.2,0l26.5,26.5
			c2,2,2,5.2,0,7.2C1228.3,1408.1,1226.9,1408.6,1225.6,1408.6z"/>
		<path class="st3" d="M1101.6,1479.4c-2.8,0-5.1-2.3-5.1-5.1v-13.6c0-2.8,2.3-5.1,5.1-5.1c2.8,0,5.1,2.3,5.1,5.1v13.6
			C1106.7,1477.1,1104.4,1479.4,1101.6,1479.4z"/>
		<path class="st3" d="M1278.9,1277.2h-9.1c-2.8,0-5.1-2.3-5.1-5.1c0-2.8,2.3-5.1,5.1-5.1h9.1c2.8,0,5.1,2.3,5.1,5.1
			C1284,1275,1281.7,1277.2,1278.9,1277.2z"/>
	</g>
	<g>
		<g>
			<rect x="1679.5" y="2172.1" class="st2" width="63.6" height="37.1"/>
			<path class="st3" d="M1748.2,2214.2h-73.8V2167h73.8V2214.2z M1684.6,2204.1h53.4v-26.9h-53.4V2204.1z"/>
		</g>
		<g>
			<rect x="1766.2" y="2172.1" class="st2" width="63.6" height="37.1"/>
			<path class="st3" d="M1834.8,2214.2h-73.8V2167h73.8V2214.2z M1771.3,2204.1h53.4v-26.9h-53.4V2204.1z"/>
		</g>
		<g>
			<rect x="1850.4" y="2172.1" class="st2" width="63.6" height="37.1"/>
			<path class="st3" d="M1919,2214.2h-73.8V2167h73.8V2214.2z M1855.5,2204.1h53.4v-26.9h-53.4V2204.1z"/>
		</g>
		<g>
			<rect x="1934.5" y="2172.1" class="st2" width="63.6" height="37.1"/>
			<path class="st3" d="M2003.2,2214.2h-73.8V2167h73.8V2214.2z M1939.6,2204.1h53.4v-26.9h-53.4V2204.1z"/>
		</g>
		<g>
			<rect x="2018.7" y="2172.1" class="st2" width="63.6" height="37.1"/>
			<path class="st3" d="M2087.4,2214.2h-73.8V2167h73.8V2214.2z M2023.8,2204.1h53.4v-26.9h-53.4V2204.1z"/>
		</g>
		<g>
			<rect x="2102.9" y="2172.1" class="st2" width="63.6" height="37.1"/>
			<path class="st3" d="M2171.6,2214.2h-73.8V2167h73.8V2214.2z M2108,2204.1h53.4v-26.9H2108V2204.1z"/>
		</g>
		<g>
			<rect x="2187.1" y="2172.1" class="st2" width="63.6" height="37.1"/>
			<path class="st3" d="M2255.8,2214.2H2182V2167h73.8V2214.2z M2192.2,2204.1h53.4v-26.9h-53.4V2204.1z"/>
		</g>
		<g>
			<rect x="2271.3" y="2172.1" class="st2" width="63.6" height="37.1"/>
			<path class="st3" d="M2340,2214.2h-73.8V2167h73.8V2214.2z M2276.4,2204.1h53.4v-26.9h-53.4V2204.1z"/>
		</g>
		<g>
			<rect x="2355.5" y="2172.1" class="st2" width="63.6" height="37.1"/>
			<path class="st3" d="M2424.2,2214.2h-73.8V2167h73.8V2214.2z M2360.6,2204.1h53.4v-26.9h-53.4V2204.1z"/>
		</g>
		<g>
			<rect x="2439.7" y="2172.1" class="st2" width="63.6" height="37.1"/>
			<path class="st3" d="M2508.4,2214.2h-73.8V2167h73.8V2214.2z M2444.8,2204.1h53.4v-26.9h-53.4V2204.1z"/>
		</g>
		<g>
			<rect x="2576.3" y="2172.1" class="st2" width="63.6" height="37.1"/>
			<path class="st3" d="M2645,2214.2h-73.8V2167h73.8V2214.2z M2581.4,2204.1h53.4v-26.9h-53.4V2204.1z"/>
		</g>
		<g>
			<rect x="2660.5" y="2172.1" class="st2" width="63.6" height="37.1"/>
			<path class="st3" d="M2729.2,2214.2h-73.8V2167h73.8V2214.2z M2665.6,2204.1h53.4v-26.9h-53.4V2204.1z"/>
		</g>
		<g>
			<rect x="2744.7" y="2172.1" class="st2" width="63.6" height="37.1"/>
			<path class="st3" d="M2813.4,2214.2h-73.8V2167h73.8V2214.2z M2749.8,2204.1h53.4v-26.9h-53.4V2204.1z"/>
		</g>
		<g>
			<rect x="1628.9" y="2209.2" class="st2" width="1255.2" height="49.1"/>
			<path class="st3" d="M2889.2,2263.4H1623.8v-59.3h1265.4V2263.4z M1634,2253.2h1245v-38.9H1634V2253.2z"/>
		</g>
	</g>
	<g>
		<g>
			<path class="st2" d="M3170,2169.1h-44.6c-37,0-68.7,22.5-82.3,54.6c-4.5,10.7-7,22.4-7,34.8l0,0h223.2l0,0
				C3259.3,2209,3219.3,2169.1,3170,2169.1z"/>
			<path class="st3" d="M3264.4,2263.5H3031v-5.1c0-12.7,2.5-25.1,7.4-36.8c14.8-35,49-57.7,87-57.7h44.6
				c52.1,0,94.4,42.4,94.4,94.4V2263.5z M3041.3,2253.3H3254c-2.6-44.1-39.3-79.1-84.1-79.1h-44.6c-33.9,0-64.4,20.2-77.6,51.4
				C3044,2234.4,3041.9,2243.7,3041.3,2253.3z"/>
		</g>
		<path class="st3" d="M3130.3,2225.1h-84.9c-2.8,0-5.1-2.3-5.1-5.1c0-2.8,2.3-5.1,5.1-5.1h74.7v-45.3c0-2.8,2.3-5.1,5.1-5.1
			c2.8,0,5.1,2.3,5.1,5.1V2225.1z"/>
		<path class="st3" d="M3377.2,2809.8c-2.8,0-5.1-2.3-5.1-5.1v-118.9c0-57.8-22.5-112.1-63.4-152.9c-32.1-32.1-32.1-84.3-0.1-116.4
			c28-28.1,28-73.8,0-101.9l-52.8-52.9c-2-2-2-5.2,0-7.2c2-2,5.2-2,7.2,0l52.8,52.9c32,32.1,32,84.2,0,116.3
			c-28.1,28.1-28,73.9,0.1,101.9c21.2,21.1,37.7,45.9,49.1,73.5c11.4,27.6,17.3,56.8,17.3,86.7v118.9
			C3382.3,2807.5,3380.1,2809.8,3377.2,2809.8z"/>
	</g>
	<g>
		<line class="st2" x1="718.9" y1="2437.9" x2="718.9" y2="2804.8"/>
		<path class="st3" d="M718.9,2809.9c-2.8,0-5.1-2.3-5.1-5.1v-366.9c0-2.8,2.3-5.1,5.1-5.1s5.1,2.3,5.1,5.1v366.9
			C724,2807.7,721.7,2809.9,718.9,2809.9z"/>
	</g>
	<g>
		<line class="st2" x1="892.1" y1="2437.9" x2="892.1" y2="2804.8"/>
		<path class="st3" d="M892.1,2809.9c-2.8,0-5.1-2.3-5.1-5.1v-366.9c0-2.8,2.3-5.1,5.1-5.1s5.1,2.3,5.1,5.1v366.9
			C897.2,2807.7,895,2809.9,892.1,2809.9z"/>
	</g>
	<g>
		<line class="st2" x1="3446.3" y1="2805.1" x2="3559.7" y2="2597.4"/>
		<path class="st3" d="M3446.3,2810.2c-0.8,0-1.7-0.2-2.4-0.6c-2.5-1.3-3.4-4.4-2-6.9l113.3-207.7c1.3-2.5,4.4-3.4,6.9-2
			c2.5,1.3,3.4,4.4,2,6.9l-113.3,207.7C3449.9,2809.2,3448.1,2810.2,3446.3,2810.2z"/>
	</g>
	<g>
		<line class="st2" x1="3262.2" y1="2805.1" x2="3462.5" y2="2437.9"/>
		<path class="st3" d="M3262.1,2810.2c-0.8,0-1.7-0.2-2.4-0.6c-2.5-1.3-3.4-4.4-2-6.9l200.4-367.2c1.3-2.5,4.4-3.4,6.9-2
			c2.5,1.3,3.4,4.4,2,6.9l-200.4,367.2C3265.7,2809.2,3264,2810.2,3262.1,2810.2z"/>
	</g>
	<g>
		<line class="st2" x1="3733.3" y1="2437.9" x2="3733.3" y2="2804.8"/>
		<path class="st3" d="M3733.3,2809.9c-2.8,0-5.1-2.3-5.1-5.1v-366.9c0-2.8,2.3-5.1,5.1-5.1s5.1,2.3,5.1,5.1v366.9
			C3738.4,2807.7,3736.1,2809.9,3733.3,2809.9z"/>
	</g>
	<g>
		<line class="st2" x1="3560.1" y1="2437.9" x2="3560.1" y2="2804.8"/>
		<path class="st3" d="M3560.1,2809.9c-2.8,0-5.1-2.3-5.1-5.1v-366.9c0-2.8,2.3-5.1,5.1-5.1c2.8,0,5.1,2.3,5.1,5.1v366.9
			C3565.2,2807.7,3562.9,2809.9,3560.1,2809.9z"/>
	</g>
	<g>
		<g>
			<rect x="1569.3" y="534.3" class="st2" width="316" height="204.1"/>
			<path class="st3" d="M1890.3,743.5h-326.2V529.2h326.2V743.5z M1574.4,733.3h305.8V539.4h-305.8V733.3z"/>
		</g>
		<path class="st3" d="M1727.2,723.5c-48.1,0-87.2-39.1-87.2-87.2s39.1-87.2,87.2-87.2s87.2,39.1,87.2,87.2
			S1775.3,723.5,1727.2,723.5z M1727.2,559.3c-42.5,0-77,34.5-77,77s34.5,77,77,77s77-34.5,77-77S1769.7,559.3,1727.2,559.3z"/>
		<path class="st3" d="M1727.2,699.5c-34.8,0-63.2-28.3-63.2-63.2c0-34.8,28.3-63.2,63.2-63.2c34.8,0,63.2,28.3,63.2,63.2
			C1790.4,671.1,1762.1,699.5,1727.2,699.5z M1727.2,583.4c-29.2,0-53,23.8-53,53s23.8,53,53,53s53-23.8,53-53
			S1756.4,583.4,1727.2,583.4z"/>
		<path class="st3" d="M1849.6,575.2H1819c-2.8,0-5.1-2.3-5.1-5.1c0-2.8,2.3-5.1,5.1-5.1h30.6c2.8,0,5.1,2.3,5.1,5.1
			C1854.7,572.9,1852.4,575.2,1849.6,575.2z"/>
		<g>
			<rect x="1601.7" y="504.5" class="st2" width="66.9" height="29.8"/>
			<path class="st3" d="M1673.6,539.4h-77.1v-40h77.1V539.4z M1606.7,529.2h56.7v-19.6h-56.7V529.2z"/>
		</g>
	</g>
	<g>
		<g>
			<rect x="3555" y="458.5" class="st2" width="467.8" height="423.5"/>
			<path class="st3" d="M4027.9,887.2h-478V453.4h478V887.2z M3560.1,877h457.6V463.6h-457.6V877z"/>
		</g>
		<path class="st3" d="M3967.8,829.6h-356.6V511h356.6V829.6z M3621.4,819.4h336.3V521.2h-336.3V819.4z"/>
		<path class="st3" d="M3685.3,463.6c-1.3,0-2.6-0.5-3.6-1.5c-2-2-2-5.2,0-7.2l108.1-108.1L3897,454c2,2,2,5.2,0,7.2
			c-2,2-5.2,2-7.2,0l-100-100l-100.9,100.9C3687.9,463.1,3686.6,463.6,3685.3,463.6z"/>
		<g>
			<circle class="st2" cx="3789.9" cy="354" r="30.3"/>
			<path class="st3" d="M3789.9,389.4c-19.5,0-35.4-15.9-35.4-35.4c0-19.5,15.9-35.4,35.4-35.4c19.5,0,35.4,15.9,35.4,35.4
				C3825.3,373.5,3809.4,389.4,3789.9,389.4z M3789.9,328.8c-13.9,0-25.2,11.3-25.2,25.2c0,13.9,11.3,25.2,25.2,25.2
				c13.9,0,25.2-11.3,25.2-25.2C3815.1,340.1,3803.8,328.8,3789.9,328.8z"/>
		</g>
	</g>
	<g>
		<rect x="2193.9" y="312.4" class="st2" width="467.8" height="423.5"/>
		<path class="st3" d="M2666.8,741.1h-478V307.4h478V741.1z M2199,730.9h457.6V317.5H2199V730.9z"/>
	</g>
	<path class="st3" d="M2606.7,683.5H2250V365h356.6V683.5z M2260.2,673.3h336.3V375.1h-336.3V673.3z"/>
	<path class="st3" d="M2324.2,317.5c-1.3,0-2.6-0.5-3.6-1.5c-2-2-2-5.2,0-7.2l108.1-108.1l107.2,107.2c2,2,2,5.2,0,7.2
		c-2,2-5.2,2-7.2,0l-100-100L2327.8,316C2326.8,317,2325.5,317.5,2324.2,317.5z"/>
	<g>
		<circle class="st2" cx="2428.7" cy="207.9" r="30.3"/>
		<path class="st3" d="M2428.7,243.3c-19.5,0-35.4-15.9-35.4-35.4c0-19.5,15.9-35.4,35.4-35.4c19.5,0,35.4,15.9,35.4,35.4
			C2464.1,227.4,2448.2,243.3,2428.7,243.3z M2428.7,182.7c-13.9,0-25.2,11.3-25.2,25.2c0,13.9,11.3,25.2,25.2,25.2
			c13.9,0,25.2-11.3,25.2-25.2C2453.9,194,2442.6,182.7,2428.7,182.7z"/>
	</g>
</g>
</svg>
